HIERARCHY
ROOT Hips
{
	OFFSET 0.000000 0.000000 0.000000 
	CHANNELS 6 Xposition Yposition Zposition Yrotation Zrotation Xrotation 
	JOINT Lumbar
	{
		OFFSET 0.000000 0.000000 0.000000 
		CHANNELS 3 Zrotation Xrotation Yrotation
		JOINT Neck
		{
			OFFSET 0.000000 0.445665 0.000000 
			CHANNELS 3 Zrotation Xrotation Yrotation
			End Site
			{
				OFFSET 0.000000 0.227535 0.000000 
			}
		}
		JOINT RightShoulder
		{
			OFFSET 0.019635 0.377685 0.194865 
			CHANNELS 3 Zrotation Xrotation Yrotation
			JOINT RightElbow
			{
				OFFSET 0.000000 -0.243375 0.000000 
				CHANNELS 2 Zrotation Yrotation
				JOINT RightWrist
				{
					OFFSET 0.000000 -0.264825 0.000000 
					CHANNELS 2 Zrotation Xrotation
					End Site
					{
						OFFSET 0.006600 -0.176220 0.000990 
					}
				}
			}
		}
		JOINT LeftShoulder
		{
			OFFSET 0.019635 0.377685 -0.194865 
			CHANNELS 3 Zrotation Xrotation Yrotation
			JOINT LeftElbow
			{
				OFFSET 0.000000 -0.243375 0.000000 
				CHANNELS 2 Zrotation Yrotation
				JOINT LeftWrist
				{
					OFFSET 0.000000 -0.264825 0.000000 
					CHANNELS 2 Zrotation Xrotation
					End Site
					{
						OFFSET 0.006600 -0.176220 -0.000990 
					}
				}
			}
		}
	}
	JOINT RightHip
	{
		OFFSET 0.052140 -0.069960 0.075570 
		CHANNELS 3 Zrotation Xrotation Yrotation
		JOINT RightKnee
		{
			OFFSET 0.000000 -0.402270 0.000000 
			CHANNELS 1 Zrotation
			JOINT RightAnkle
			{
				OFFSET 0.000000 -0.404085 0.000000 
				CHANNELS 3 Zrotation Xrotation Yrotation
				End Site
				{
					OFFSET 0.204105 -0.089430 0.008415 
				}
			}
		}
	}
	JOINT LeftHip
	{
		OFFSET 0.052140 -0.069960 -0.075570 
		CHANNELS 3 Zrotation Xrotation Yrotation
		JOINT LeftKnee
		{
			OFFSET 0.000000 -0.402270 0.000000 
			CHANNELS 1 Zrotation
			JOINT LeftAnkle
			{
				OFFSET 0.000000 -0.404085 0.000000 
				CHANNELS 3 Zrotation Xrotation Yrotation
				End Site
				{
					OFFSET 0.204105 -0.089430 -0.008415 
				}
			}
		}
	}
}
MOTION
Frames: 34
Frame Time: 0.02
-0.0003 0.00024 0.00027 20.98458 -31.7279 -5.1778 55.58366 0.70389 -0.20001 -6.83231 -1.84471 -0.13263 135.89653 -79.06303 -70.1962 9.38346 97.26684 -3.66591 -8.48242 145.04797 75.79206 90.06056 7.56977 -70.36377 2.32469 10.56695 48.61085 2.36254 -4.54196 -19.99609 -7.36924 -5.58982 -3.66223 52.94502 -0.19938 -3.42277 -24.21475 -9.2195 5.63192 3.76081
4e-05 0.00023 -2e-05 20.92266 -31.79263 -5.0948 55.58955 0.67698 -0.16343 -6.81133 -1.81687 -0.13204 136.07687 -79.02663 -69.98799 9.36334 97.21462 -3.6498 -8.47254 145.52686 75.78113 90.04269 7.58144 -70.26093 2.47074 10.51019 48.66457 2.16198 -5.23034 -19.95897 -7.35141 -5.5113 -3.6172 52.97175 -0.07968 -2.53069 -24.21169 -9.12607 5.55887 3.7178
0.00037 0.00022 -0.00032 20.86084 -31.8572 -5.01199 55.59543 0.65014 -0.12691 -6.7904 -1.78909 -0.13145 136.25672 -78.99032 -69.78054 9.34326 97.16255 -3.6337 -8.46268 146.00463 75.77025 90.02488 7.59306 -70.15818 2.61639 10.45355 48.71816 1.96199 -5.91647 -19.92199 -7.33366 -5.433 -3.57231 52.99838 0.03967 -1.6411 -24.20864 -9.03289 5.48604 3.67491
0.00071 0.00021 -0.00061 20.79909 -31.92175 -4.92923 55.6013 0.62331 -0.09043 -6.76949 -1.76133 -0.13087 136.43651 -78.95404 -69.57301 9.32319 97.11049 -3.61763 -8.45282 146.48212 75.75935 90.00706 7.6047 -70.05562 2.762 10.39696 48.77172 1.76204 -6.60272 -19.885 -7.31589 -5.35471 -3.52743 53.02502 0.15901 -0.75172 -24.2056 -8.93973 5.41321 3.63204
0.00104 0.0002 -0.00091 20.73729 -31.98644 -4.84633 55.60719 0.5964 -0.05389 -6.74851 -1.73349 -0.13028 136.61676 -78.91768 -69.36461 9.3031 97.05827 -3.60156 -8.44296 146.96052 75.74842 89.98918 7.61639 -69.95305 2.90799 10.34028 48.8254 1.56155 -7.29121 -19.84786 -7.29803 -5.2762 -3.48241 53.05179 0.27871 0.14004 -24.20253 -8.84632 5.34017 3.58904
0.00138 0.00019 -0.0012 20.67543 -32.05076 -4.76372 55.61302 0.56973 -0.01743 -6.72769 -1.70584 -0.1297 136.7958 -78.88147 -69.15915 9.28304 97.00652 -3.58538 -8.4331 147.43688 75.73764 89.9715 7.62788 -69.84995 3.05291 10.2837 48.8788 1.36262 -7.97234 -19.81121 -7.28051 -5.19835 -3.4378 53.0781 0.39729 1.02501 -24.19953 -8.75364 5.26777 3.5464
0.00171 0.00018 -0.0015 20.61374 -32.11575 -4.6806 55.61897 0.5426 0.01915 -6.70659 -1.67785 -0.1291 136.977 -78.845 -68.94817 9.26293 96.95389 -3.56945 -8.42324 147.91699 75.72655 89.95344 7.63975 -69.74799 3.19984 10.22698 48.93271 1.16077 -8.66757 -19.77362 -7.26233 -5.11926 -3.39241 53.10531 0.518 1.92262 -24.19641 -8.65961 5.19417 3.50308
0.00204 0.00017 -0.00179 20.55194 -32.18013 -4.59795 55.62482 0.5159 0.0556 -6.68573 -1.65017 -0.12852 137.15634 -78.80877 -68.74196 9.24289 96.90204 -3.5533 -8.41339 148.39336 75.71575 89.93573 7.65127 -69.64506 3.34486 10.17043 48.98613 0.9616 -9.34975 -19.73688 -7.24476 -5.04132 -3.34774 53.13168 0.63675 2.80865 -24.1934 -8.5668 5.12166 3.46038
0.00238 0.00017 -0.00209 20.48976 -32.24375 -4.51585 55.63051 0.48969 0.09199 -6.66523 -1.62289 -0.12795 137.33298 -78.77283 -68.54277 9.22281 96.85127 -3.53682 -8.40348 148.86655 75.70532 89.91846 7.66237 -69.54053 3.48786 10.11389 49.03907 0.76565 -10.01641 -19.70123 -7.22791 -4.96471 -3.30391 53.15707 0.75315 3.68066 -24.1905 -8.47552 5.05051 3.41846
0.0027 0.00015 -0.00238 20.42903 -32.31172 -4.43048 55.63701 0.46057 0.12905 -6.64284 -1.59334 -0.12731 137.52387 -78.73523 -68.30679 9.20261 96.79468 -3.52205 -8.39372 149.36224 75.69281 89.89866 7.67594 -69.44396 3.64343 10.05669 49.0951 0.55103 -10.77368 -19.6595 -7.20683 -4.88021 -3.25516 53.18823 0.88319 4.63378 -24.18691 -8.37555 4.9716 3.37212
0.00307 0.00015 -0.00269 20.36571 -32.37052 -4.35212 55.64188 0.43765 0.16447 -6.62432 -1.56857 -0.12681 137.68552 -78.70111 -68.14611 9.18285 96.75009 -3.5038 -8.38378 149.80767 75.68465 89.88423 7.68426 -69.33142 3.77187 10.00128 49.14441 0.37592 -11.33892 -19.63046 -7.19476 -4.81251 -3.21686 53.20714 0.98436 5.41541 -24.1848 -8.29385 4.90902 3.33508
0.00361 0.00018 -0.00301 20.29132 -32.40385 -4.29215 55.64166 0.43154 0.19742 -6.61752 -1.55721 -0.12674 137.75931 -78.67677 -68.21338 9.16271 96.74119 -3.47465 -8.37182 150.13654 75.68884 89.8844 7.6781 -69.16771 3.83001 9.94718 49.1767 0.30905 -11.37941 -19.63771 -7.20693 -4.79029 -3.20685 53.19252 1.00647 5.72529 -24.18648 -8.26324 4.89213 3.32409
0.0042 0.00022 -0.00335 20.21506 -32.42802 -4.23937 55.63993 0.43174 0.2284 -6.61441 -1.55071 -0.12681 137.80504 -78.65594 -68.35251 9.14323 96.74386 -3.44216 -8.35984 150.4107 75.69739 89.88997 7.66661 -68.98928 3.85998 9.89542 49.20195 0.28188 -11.22677 -19.65746 -7.22823 -4.78505 -3.20738 53.16554 0.9996 5.86331 -24.18966 -8.25078 4.89146 3.32236
0.00478 0.00025 -0.00369 20.14225 -32.45657 -4.18382 55.63929 0.42913 0.2589 -6.6089 -1.54162 -0.12681 137.86871 -78.63332 -68.44458 9.12456 96.73943 -3.41218 -8.349 150.6963 75.70358 89.8932 7.65771 -68.82244 3.90033 9.84507 49.22951 0.2367 -11.16093 -19.67049 -7.24573 -4.77246 -3.20334 53.14418 1.00587 6.08063 -24.19232 -8.2294 4.8828 3.31607
0.00533 0.00028 -0.00401 20.05848 -32.48419 -4.12618 55.63695 0.42612 0.29503 -6.60641 -1.53359 -0.12682 137.91089 -78.61136 -68.59676 9.10149 96.74271 -3.37833 -8.33385 151.03959 75.71107 89.89604 7.64842 -68.63507 3.95151 9.78475 49.26088 0.19151 -11.09835 -19.68782 -7.26188 -4.75838 -3.19846 53.12287 1.01211 6.2921 -24.19435 -8.21091 4.87678 3.31128
0.00595 0.00033 -0.00438 19.99703 -32.51159 -4.07461 55.63781 0.42567 0.31918 -6.59857 -1.52518 -0.12686 137.99062 -78.58909 -68.64185 9.08738 96.7328 -3.35133 -8.32709 151.24833 75.71728 89.90085 7.63824 -68.48674 3.97262 9.74518 49.28257 0.15567 -10.98376 -19.69928 -7.28289 -4.75139 -3.19778 53.09841 1.01164 6.47555 -24.198 -8.19069 4.8691 3.30555
0.00672 0.00039 -0.00488 19.99826 -32.54053 -4.03807 55.64777 0.42891 0.30907 -6.57427 -1.50913 -0.12692 138.18522 -78.56316 -68.3647 9.10116 96.68259 -3.34708 -8.34823 151.10659 75.71585 89.90985 7.63041 -68.45219 3.92439 9.76647 49.27972 0.13658 -10.76861 -19.69049 -7.3161 -4.76016 -3.20652 53.06932 0.9988 6.61888 -24.206 -8.16131 4.85307 3.29517
0.00755 0.00046 -0.00543 20.02191 -32.56958 -4.00745 55.66103 0.43494 0.28736 -6.54447 -1.49383 -0.12702 138.41746 -78.53727 -67.97942 9.12338 96.61902 -3.34884 -8.37677 150.8268 75.7138 89.92001 7.62107 -68.45718 3.84525 9.80729 49.26723 0.12542 -10.50855 -19.67553 -7.35371 -4.77543 -3.21908 53.0373 0.98029 6.74033 -24.21553 -8.12955 4.83479 3.28351
0.00836 0.00053 -0.00597 20.03492 -32.59863 -3.97403 55.67285 0.44083 0.27196 -6.51788 -1.48134 -0.12713 138.63 -78.5125 -67.64893 9.13947 96.56205 -3.34642 -8.39899 150.60917 75.71368 89.93036 7.61031 -68.44228 3.7763 9.83707 49.25885 0.11012 -10.27196 -19.6641 -7.38862 -4.78746 -3.22963 53.00592 0.96508 6.87567 -24.22418 -8.09877 4.81735 3.27225
0.00916 0.0006 -0.00647 20.04975 -32.62717 -3.94109 55.68437 0.44189 0.25178 -6.48897 -1.45448 -0.12715 138.85374 -78.48261 -67.29519 9.16498 96.50271 -3.35181 -8.43431 150.40486 75.70564 89.94039 7.60884 -68.43421 3.72419 9.87807 49.25148 0.09829 -10.01603 -19.65014 -7.42675 -4.80117 -3.24163 52.97701 0.94614 6.99058 -24.23365 -8.06894 4.80111 3.26198
0.01 0.00067 -0.00705 20.06616 -32.65691 -3.90876 55.69732 0.45393 0.23924 -6.46286 -1.45922 -0.12736 139.06191 -78.46392 -66.96564 9.17323 96.44568 -3.34016 -8.44334 150.12469 75.71527 89.94815 7.58699 -68.42248 3.62809 9.89779 49.23969 0.08083 -9.79181 -19.63972 -7.45918 -4.81283 -3.25145 52.94247 0.9336 7.14227 -24.24177 -8.03651 4.78179 3.24934
0.01093 0.00077 -0.00779 20.08159 -32.68985 -3.87414 55.71327 0.49264 0.24729 -6.45202 -1.53761 -0.12807 139.22823 -78.47239 -66.71107 9.12821 96.39154 -3.29736 -8.38396 149.75883 75.76854 89.96079 7.51719 -68.38392 3.43307 9.87495 49.21899 0.04358 -9.67108 -19.64141 -7.47403 -4.81625 -3.25363 52.89256 0.94389 7.42662 -24.24561 -7.99585 4.7531 3.22921
0.01191 0.00087 -0.00861 20.09811 -32.72398 -3.84041 55.73056 0.54279 0.2642 -6.44322 -1.65027 -0.12899 139.37363 -78.4937 -66.48937 9.06591 96.34095 -3.23275 -8.29633 149.2721 75.84489 89.95834 7.42666 -68.34253 3.19101 9.82562 49.19395 0.0006 -9.58406 -19.64679 -7.48307 -4.81749 -3.25355 52.83715 0.96036 7.74526 -24.24808 -7.95283 4.72151 3.20687
0.01287 0.00097 -0.00939 20.11363 -32.75778 -3.80783 55.74735 0.58971 0.27906 -6.4292 -1.75601 -0.12983 139.52475 -78.51048 -66.26202 9.01415 96.29366 -3.16832 -8.21826 148.82359 75.90864 89.9687 7.3389 -68.30611 2.9623 9.77524 49.17043 -0.03838 -9.4791 -19.64974 -7.49523 -4.82029 -3.25489 52.7848 0.97153 8.03166 -24.25124 -7.91195 4.69221 3.18638
0.01382 0.00107 -0.01016 20.13078 -32.79107 -3.76871 55.76384 0.62863 0.28457 -6.43236 -1.82516 -0.13059 139.70209 -78.51813 -65.98454 8.95243 96.22695 -3.15022 -8.15608 148.57532 75.96358 89.99743 7.27425 -68.25217 2.77121 9.78274 49.14885 -0.0828 -9.38272 -19.65516 -7.50557 -4.8209 -3.25469 52.73038 0.99254 8.38571 -24.25407 -7.86669 4.65903 3.16249
0.01481 0.00117 -0.01099 20.14608 -32.82525 -3.74361 55.78114 0.68664 0.31256 -6.40122 -1.97873 -0.13157 139.80815 -78.55237 -65.82967 8.9059 96.19949 -3.02404 -8.05174 147.71435 76.0646 89.92981 7.16274 -68.23773 2.48494 9.66072 49.12186 -0.11754 -9.27807 -19.65702 -7.51822 -4.8255 -3.25712 52.67849 0.99517 8.60956 -24.25736 -7.82975 4.63289 3.14489
0.01587 0.00129 -0.01195 20.1431 -32.86519 -3.75476 55.80083 0.79637 0.39408 -6.26718 -2.35613 -0.13314 139.83459 -78.62036 -65.92925 8.91663 96.30988 -2.65851 -7.85539 146.72618 76.08191 90.05606 6.88004 -68.30612 1.99854 9.21164 49.08535 -0.1229 -9.13443 -19.64398 -7.53888 -4.84124 -3.26725 52.63945 0.94072 8.44609 -24.26135 -7.81876 4.63023 3.14759
0.01696 0.00141 -0.01298 20.14104 -32.90523 -3.78041 55.82105 0.92444 0.4991 -6.10012 -2.81716 -0.13494 139.78032 -78.72294 -66.16606 8.9409 96.46187 -2.17483 -7.61302 144.90338 76.17275 89.99404 6.56383 -68.42546 1.40804 8.63121 49.04303 -0.11876 -8.98311 -19.62881 -7.56201 -4.86112 -3.28013 52.60228 0.86843 8.15385 -24.26605 -7.81579 4.63411 3.15624
0.01804 0.00152 -0.01398 20.14618 -32.94301 -3.80086 55.8409 1.0431 0.59766 -5.95309 -3.24087 -0.13657 139.67482 -78.83176 -66.39014 8.95191 96.56509 -1.70999 -7.38182 142.37573 76.3778 89.72739 6.28846 -68.53099 0.8325 8.09159 49.00026 -0.11966 -8.84063 -19.61644 -7.58383 -4.87931 -3.29181 52.56137 0.80763 7.93383 -24.27094 -7.80755 4.63286 3.16063
0.0191 0.00165 -0.01497 20.11696 -32.99059 -3.81539 55.86194 1.16725 0.67893 -5.78446 -3.66417 -0.13833 139.89292 -78.84232 -66.40475 8.99323 96.76243 -1.39173 -7.19601 144.15908 76.00312 90.71248 5.88719 -68.5713 0.39412 7.61974 48.96938 -0.1171 -8.67633 -19.59335 -7.60621 -4.89655 -3.30317 52.53269 0.73308 7.65847 -24.27342 -7.80602 4.64075 3.17156
0.02021 0.00175 -0.016 20.16233 -33.01725 -3.84579 55.87983 1.28348 0.80143 -5.65355 -4.10612 -0.14004 139.47687 -79.0731 -66.88907 8.97373 96.81379 -0.74014 -6.89856 137.09501 76.7995 89.01186 5.76181 -68.79183 -0.35688 6.98972 48.91364 -0.12015 -8.55567 -19.59594 -7.62812 -4.91684 -3.31591 52.47877 0.68245 7.46571 -24.28137 -7.79254 4.63106 3.17024
0.02143 0.00179 -0.01713 20.38977 -32.99044 -3.91558 55.89521 1.37904 1.03413 -5.62975 -4.59289 -0.14023 136.81096 -79.84138 -68.6233 8.79334 96.10273 0.7996 -6.36061 102.92256 81.27561 80.26862 6.22509 -69.21089 -1.91991 5.83345 48.78065 -0.13511 -8.55206 -19.63726 -7.64767 -4.94398 -3.33148 52.35702 0.70544 7.54633 -24.30197 -7.74334 4.57243 3.13417
0.02269 0.00179 -0.0183 20.6969 -32.94177 -4.00097 55.90604 1.46483 1.30699 -5.64597 -5.09274 -0.1406 133.59614 -80.843 -70.82543 8.54993 95.30511 2.67019 -5.70199 60.37007 86.84398 68.7955 7.00167 -69.85539 -3.79727 4.54326 48.62505 -0.15725 -8.59232 -19.71117 -7.66666 -4.97404 -3.34835 52.20937 0.75242 7.71167 -24.32842 -7.682 4.49568 3.08546
0.02392 0.0018 -0.01943 20.98272 -32.90027 -4.07983 55.91501 1.55141 1.56016 -5.6473 -5.5775 -0.14177 130.98599 -81.77673 -72.82515 8.32801 94.78035 4.3928 -5.06102 23.60009 91.60398 58.32251 7.75314 -70.59451 -5.549 3.39698 48.486 -0.17978 -8.61728 -19.79083 -7.68635 -5.00329 -3.36495 52.07214 0.78631 7.82915 -24.35372 -7.62669 4.42645 3.04217
